<?xml version="1.0" ?><svg width="64px" height="64px" viewBox="0 0 64 64" id="Layer_1" style="enable-background:new 0 0 64 64;" version="1.1" xml:space="preserve" xmlns="http://www.w3.org/2000/svg" xmlns:xlink="http://www.w3.org/1999/xlink"><style type="text/css">
	.st0{fill:none;stroke:#000000;stroke-width:2;stroke-miterlimit:10;}
	.st1{fill:none;stroke:#000000;stroke-width:2;stroke-linecap:round;stroke-linejoin:round;stroke-miterlimit:10;}
	
		.st2{fill:none;stroke:#000000;stroke-width:2;stroke-linecap:round;stroke-linejoin:round;stroke-miterlimit:10;stroke-dasharray:6,5;}
</style><g><g><path class="st1" d="M43,30.7v15.5c0,1.5-1.2,2.7-2.7,2.7H14.7c-1.5,0-2.7-1.2-2.7-2.7V30.7c0-1.5,1.2-2.7,2.7-2.7h25.6    C41.8,28,43,29.2,43,30.7z"/><line class="st1" x1="12" x2="43" y1="33.5" y2="33.5"/></g><g><path class="st1" d="M20.1,24l1.9-7c0.4-1.5,1.9-2.3,3.4-1.9L50,21.7c1.5,0.4,2.3,1.9,1.9,3.4l-4,15"/><line class="st1" x1="21.2" x2="51.2" y1="19.7" y2="27.7"/></g></g></svg>